<svg xmlns="http://www.w3.org/2000/svg" width="800" height="600" viewBox="0 0 800 600">
  <defs>
    <linearGradient id="bg-gradient" x1="0%" y1="0%" x2="0%" y2="100%">
      <stop offset="0%" stop-color="#000033" />
      <stop offset="100%" stop-color="#000066" />
    </linearGradient>
    <radialGradient id="star-gradient" cx="50%" cy="50%" r="50%" fx="50%" fy="50%">
      <stop offset="0%" stop-color="#FFFFFF" stop-opacity="0.8" />
      <stop offset="100%" stop-color="#FFFFFF" stop-opacity="0" />
    </radialGradient>
  </defs>
  <rect width="800" height="600" fill="url(#bg-gradient)" />
  
  <!-- Add some stars in the background -->
  <g opacity="0.6">
    <circle cx="100" cy="80" r="1" fill="url(#star-gradient)" />
    <circle cx="200" cy="150" r="0.8" fill="url(#star-gradient)" />
    <circle cx="300" cy="50" r="1.2" fill="url(#star-gradient)" />
    <circle cx="450" cy="120" r="0.9" fill="url(#star-gradient)" />
    <circle cx="550" cy="200" r="1" fill="url(#star-gradient)" />
    <circle cx="650" cy="80" r="1.1" fill="url(#star-gradient)" />
    <circle cx="750" cy="180" r="0.7" fill="url(#star-gradient)" />
    <circle cx="150" cy="250" r="1" fill="url(#star-gradient)" />
    <circle cx="250" cy="350" r="0.8" fill="url(#star-gradient)" />
    <circle cx="350" cy="300" r="1.2" fill="url(#star-gradient)" />
    <circle cx="500" cy="400" r="0.9" fill="url(#star-gradient)" />
    <circle cx="600" cy="350" r="1" fill="url(#star-gradient)" />
    <circle cx="700" cy="450" r="1.1" fill="url(#star-gradient)" />
    <circle cx="180" cy="500" r="0.7" fill="url(#star-gradient)" />
    <circle cx="280" cy="550" r="1" fill="url(#star-gradient)" />
    <circle cx="400" cy="520" r="0.8" fill="url(#star-gradient)" />
    <circle cx="550" cy="480" r="1.2" fill="url(#star-gradient)" />
    <circle cx="650" cy="550" r="0.9" fill="url(#star-gradient)" />
  </g>
</svg>