<?xml version="1.0" encoding="UTF-8"?>
<svg width="32" height="32" viewBox="0 0 32 32" xmlns="http://www.w3.org/2000/svg">
  <!-- Main ball circle -->
  <circle cx="16" cy="16" r="15" fill="#FFFFFF" />
  
  <!-- Subtle gradient effect -->
  <circle cx="16" cy="16" r="13" fill="#F0F0F0" />
  <circle cx="16" cy="16" r="10" fill="#E8E8E8" />
  
  <!-- Tennis ball style pattern -->
  <path d="M5,16 C5,10 10,5 16,5 C22,5 27,10 27,16" stroke="#CCCCCC" stroke-width="1.5" fill="none" />
  <path d="M5,16 C5,22 10,27 16,27 C22,27 27,22 27,16" stroke="#CCCCCC" stroke-width="1.5" fill="none" />
  
  <!-- Color sections for visible rotation -->
  <path d="M16,16 L16,3 A13,13 0 0,1 29,16 Z" fill="#3388FF" opacity="0.2" />
  <path d="M16,16 L29,16 A13,13 0 0,1 16,29 Z" fill="#FF8833" opacity="0.2" />
  
  <!-- Highlight for 3D effect -->
  <circle cx="11" cy="11" r="5" fill="#FFFFFF" opacity="0.8" />
  <circle cx="9" cy="9" r="2" fill="#FFFFFF" opacity="0.9" />
  
  <!-- Small details for rotation visibility -->
  <circle cx="22" cy="10" r="1.5" fill="#333333" opacity="0.5" />
  <circle cx="10" cy="22" r="1.5" fill="#333333" opacity="0.5" />
</svg>