<?xml version="1.0" encoding="UTF-8"?>
<svg width="224" height="32" viewBox="0 0 224 32" xmlns="http://www.w3.org/2000/svg">
  <!-- Powerup 1: Multiball -->
  <circle cx="16" cy="16" r="15" fill="#FF5500" stroke="#FFFFFF" stroke-width="1" />
  <circle cx="10" cy="16" r="5" fill="#FFFFFF" />
  <circle cx="22" cy="16" r="5" fill="#FFFFFF" />
  <circle cx="16" cy="10" r="5" fill="#FFFFFF" opacity="0.7" />
  
  <!-- Powerup 2: Paddle Expand -->
  <circle cx="48" cy="16" r="15" fill="#00FF00" stroke="#FFFFFF" stroke-width="1" />
  <rect x="38" y="16" width="20" height="4" rx="2" ry="2" fill="#FFFFFF" />
  <polygon points="38,16 34,12 34,20" fill="#FFFFFF" />
  <polygon points="58,16 62,12 62,20" fill="#FFFFFF" />
  
  <!-- Powerup 3: Paddle Shrink -->
  <circle cx="80" cy="16" r="15" fill="#FF0000" stroke="#FFFFFF" stroke-width="1" />
  <rect x="74" y="16" width="12" height="4" rx="2" ry="2" fill="#FFFFFF" />
  <polygon points="74,16 78,12 78,20" fill="#FFFFFF" />
  <polygon points="86,16 82,12 82,20" fill="#FFFFFF" />
  
  <!-- Powerup 4: Slow Down -->
  <circle cx="112" cy="16" r="15" fill="#0000FF" stroke="#FFFFFF" stroke-width="1" />
  <path d="M104,12 L120,12 L120,16 L112,24 L104,16 Z" fill="#FFFFFF" />
  
  <!-- Powerup 5: Speed Up -->
  <circle cx="144" cy="16" r="15" fill="#FFFF00" stroke="#FFFFFF" stroke-width="1" />
  <path d="M136,24 L152,24 L152,20 L144,8 L136,20 Z" fill="#FFFFFF" />
  
  <!-- Powerup 6: Extra Life -->
  <circle cx="176" cy="16" r="15" fill="#FF00FF" stroke="#FFFFFF" stroke-width="1" />
  <path d="M176,24 L168,16 C166,14 166,10 168,8 C170,6 174,6 176,8 C178,6 182,6 184,8 C186,10 186,14 184,16 L176,24 Z" fill="#FFFFFF" />
  
  <!-- Powerup 7: Laser -->
  <circle cx="208" cy="16" r="15" fill="#00FFFF" stroke="#FFFFFF" stroke-width="1" />
  <rect x="206" y="8" width="4" height="16" fill="#FFFFFF" />
  <polygon points="202,8 214,8 208,2" fill="#FFFFFF" />
</svg>