<svg width="100" height="20" xmlns="http://www.w3.org/2000/svg">
  <!-- Gradient definition -->
  <defs>
    <linearGradient id="paddleGradient" x1="0%" y1="0%" x2="0%" y2="100%">
      <stop offset="0%" stop-color="#ff5000" />
      <stop offset="100%" stop-color="#cc1e00" />
    </linearGradient>
    <linearGradient id="flameGradient" x1="0%" y1="0%" x2="0%" y2="100%">
      <stop offset="0%" stop-color="#ffcc00" />
      <stop offset="100%" stop-color="#ff3300" />
    </linearGradient>
    <filter id="glow" x="-20%" y="-20%" width="140%" height="140%">
      <feGaussianBlur stdDeviation="4" result="blur" />
      <feComposite in="SourceGraphic" in2="blur" operator="over" />
    </filter>
  </defs>
  
  <!-- Main paddle body with rounded corners -->
  <rect x="0" y="2" width="100" height="16" 
        rx="6" ry="6" 
        fill="url(#paddleGradient)" />
  
  <!-- Convex top curve - more pronounced dome -->
  <path d="
    M 6 2
    L 10 0.8
    L 20 0.4
    L 30 0
    L 40 -0.4
    L 50 -0.7
    L 60 -0.4
    L 70 0
    L 80 0.4
    L 90 0.8
    L 94 2
    Z" fill="url(#paddleGradient)" filter="url(#glow)" />
  
  <!-- Highlight for 3D effect -->
  <rect x="10" y="14" 
        width="80" height="4" 
        fill="white" opacity="0.3" />
  
  <!-- Multiple glow lines on convex surface -->
  <line x1="20" y1="6" 
        x2="80" y2="6" 
        stroke="#ff8800" stroke-width="1.5" opacity="0.7" />
        
  <line x1="15" y1="8" 
        x2="85" y2="8" 
        stroke="#ff5500" stroke-width="1.5" opacity="0.7" />
        
  <line x1="10" y1="10" 
        x2="90" y2="10" 
        stroke="#ff3300" stroke-width="1.5" opacity="0.7" />
  
  <!-- Flame-like details at edges -->
  <path d="
    M 5 6
    L 15 2
    L 20 6
    Z" fill="url(#flameGradient)" opacity="0.7" />
    
  <path d="
    M 95 6
    L 85 2
    L 80 6
    Z" fill="url(#flameGradient)" opacity="0.7" />
    
  <!-- Speed boost indicator -->
  <circle cx="20" cy="17" r="1.6" fill="#ff3300" opacity="0.6" />
  <circle cx="80" cy="17" r="1.6" fill="#ff3300" opacity="0.6" />
  
  <!-- Text indicator for speed boost -->
  <text x="50" y="17.4" 
        font-family="Arial" font-size="2.8" 
        text-anchor="middle" fill="white">BOOST</text>
</svg>